<?xml version="1.0" encoding="UTF-8" standalone="no"?>
<svg
   xmlns:dc="http://purl.org/dc/elements/1.1/"
   xmlns:cc="http://creativecommons.org/ns#"
   xmlns:rdf="http://www.w3.org/1999/02/22-rdf-syntax-ns#"
   xmlns:svg="http://www.w3.org/2000/svg"
   xmlns="http://www.w3.org/2000/svg"
   viewBox="0 0 160 68.75"
   height="68.75"
   width="160"
   xml:space="preserve"
   version="1.1"
   id="svg4136"><metadata
     id="metadata4142"><rdf:RDF><cc:Work
         rdf:about=""><dc:format>image/svg+xml</dc:format><dc:type
           rdf:resource="http://purl.org/dc/dcmitype/StillImage" /><dc:title></dc:title></cc:Work></rdf:RDF></metadata><defs
     id="defs4140" /><g
     transform="matrix(1.25,0,0,-1.25,0,68.75)"
     id="g4144"><path
       d="m 22.516,36.5559 2.875,0 0,-17.5 -2.875,0 0,17.5 z m 0,6.8132 2.875,0 0,-3.641 -2.875,0 0,3.641 z"
       style="fill:#000000;fill-opacity:1;fill-rule:nonzero;stroke:none"
       id="path4148" /><g
       id="g4162"
       transform="scale(0.105283,-0.0947174)"><path
         d="m 232.633,-63.9814 c -22.191,9.9844 -48.311,-1.7775 -57.81,-23.5941 -2.667,-6.0954 -4.007,-12.6985 -3.97,-19.3005"
         style="fill:none;stroke:#595dc2;stroke-width:27.23800087;stroke-linecap:butt;stroke-linejoin:miter;stroke-miterlimit:4;stroke-dasharray:none;stroke-opacity:1"
         id="path4164" /></g><path
       d="m 16.5512,9.88906 2.87891,0 0,35.2301 -2.87891,0 0,-35.2301 z"
       style="fill:#595dc2;fill-opacity:1;fill-rule:nonzero;stroke:none"
       id="path4166" /><path
       d="m 22.484,11.8262 2.87891,0 0,2.66797 -2.87891,0 0,-2.66797 z"
       style="fill:#595dc2;fill-opacity:1;fill-rule:nonzero;stroke:none"
       id="path4168" /><g
       id="g4170"
       transform="scale(0.105283,-0.0947174)"><path
         d="m 289.032,-83.8597 c -22.187,9.9804 -48.307,-1.7775 -57.846,-23.6313 -2.638,-6.062 -3.97,-12.661 -3.929,-19.264"
         style="fill:none;stroke:#595dc2;stroke-width:27.23800087;stroke-linecap:butt;stroke-linejoin:miter;stroke-miterlimit:4;stroke-dasharray:none;stroke-opacity:1"
         id="path4172" /></g><g
       id="g4174"
       transform="scale(0.105283,-0.0947174)"><path
         d="m 114.502,-531.948 c 31.2,0.292 56.021,27.095 56.392,57.824"
         style="fill:none;stroke:#595dc2;stroke-width:27.23800087;stroke-linecap:butt;stroke-linejoin:miter;stroke-miterlimit:4;stroke-dasharray:none;stroke-opacity:1"
         id="path4176" /></g><g
       id="g4178"
       transform="scale(0.105283,-0.0947174)"><path
         d="m 169.336,-565.601 c 31.199,0.293 56.058,27.099 56.399,57.824"
         style="fill:none;stroke:#595dc2;stroke-width:27.62260056;stroke-linecap:butt;stroke-linejoin:miter;stroke-miterlimit:4;stroke-dasharray:none;stroke-opacity:1"
         id="path4180" /></g><path
       d="m 10.3629,8.26406 2.8793,0 0,34.4449 -2.8793,0 0,-34.4449 z"
       style="fill:#595dc2;fill-opacity:1;fill-rule:nonzero;stroke:none"
       id="path4182" /><g
       id="g4184"
       transform="scale(0.105283,-0.0947174)"><path
         d="m 173.866,-45.9632 c -22.187,9.9845 -48.307,-1.7651 -57.846,-23.6312 -2.631,-6.0583 -3.97,-12.661 -3.93,-19.2513"
         style="fill:none;stroke:#595dc2;stroke-width:27.23800087;stroke-linecap:butt;stroke-linejoin:miter;stroke-miterlimit:4;stroke-dasharray:none;stroke-opacity:1"
         id="path4186" /></g><g
       id="g4188"
       transform="scale(0.105283,-0.0947174)"><path
         d="m 55.7651,-507.492 c 31.1624,0.247 56.0289,27.062 56.3629,57.778"
         style="fill:none;stroke:#595dc2;stroke-width:27.23800087;stroke-linecap:butt;stroke-linejoin:miter;stroke-miterlimit:4;stroke-dasharray:none;stroke-opacity:1"
         id="path4190" /></g><path
       d="m 4.60508,6.63516 2.87891,0 0,34.4449 -2.87891,0 0,-34.4449 z"
       style="fill:#595dc2;fill-opacity:1;fill-rule:nonzero;stroke:none"
       id="path4192" /><g
       id="g4194"
       transform="scale(0.105283,-0.0947174)"><path
         d="M 119.173,-28.6749 C 96.986,-18.6534 70.8658,-30.4153 61.3305,-52.269 58.6999,-58.3273 57.3605,-64.93 57.3976,-71.5698"
         style="fill:none;stroke:#595dc2;stroke-width:27.23800087;stroke-linecap:butt;stroke-linejoin:miter;stroke-miterlimit:4;stroke-dasharray:none;stroke-opacity:1"
         id="path4196" /></g><g
       id="g4198"
       transform="scale(0.105283,-0.0947174)"><path
         d="m 0.853358,-488.142 c 31.203242,0.243 56.061942,27.087 56.392142,57.816"
         style="fill:none;stroke:#595dc2;stroke-width:27.23800087;stroke-linecap:butt;stroke-linejoin:miter;stroke-miterlimit:4;stroke-dasharray:none;stroke-opacity:1"
         id="path4200" /></g></g></svg>