<?xml version="1.0" encoding="UTF-8" standalone="no"?>
<!-- Created with Inkscape (http://www.inkscape.org/) -->

<svg
   xmlns:dc="http://purl.org/dc/elements/1.1/"
   xmlns:cc="http://creativecommons.org/ns#"
   xmlns:rdf="http://www.w3.org/1999/02/22-rdf-syntax-ns#"
   xmlns:svg="http://www.w3.org/2000/svg"
   xmlns="http://www.w3.org/2000/svg"
   xmlns:sodipodi="http://sodipodi.sourceforge.net/DTD/sodipodi-0.dtd"
   xmlns:inkscape="http://www.inkscape.org/namespaces/inkscape"
   id="svg2"
   version="1.1"
   inkscape:version="0.91 r13725"
   xml:space="preserve"
   width="160"
   height="68.75"
   viewBox="0 0 160 68.75"
   sodipodi:docname="logoname.svg"><metadata
     id="metadata8"><rdf:RDF><cc:Work
         rdf:about=""><dc:format>image/svg+xml</dc:format><dc:type
           rdf:resource="http://purl.org/dc/dcmitype/StillImage" /><dc:title></dc:title></cc:Work></rdf:RDF></metadata><defs
     id="defs6" /><sodipodi:namedview
     pagecolor="#ffffff"
     bordercolor="#666666"
     borderopacity="1"
     objecttolerance="10"
     gridtolerance="10"
     guidetolerance="10"
     inkscape:pageopacity="0"
     inkscape:pageshadow="2"
     inkscape:window-width="640"
     inkscape:window-height="480"
     id="namedview4"
     showgrid="false"
     inkscape:zoom="2.24375"
     inkscape:cx="80"
     inkscape:cy="34.375"
     inkscape:window-x="0"
     inkscape:window-y="0"
     inkscape:window-maximized="0"
     inkscape:current-layer="g10" /><g
     id="g10"
     inkscape:groupmode="layer"
     inkscape:label="ink_ext_XXXXXX"
     transform="matrix(1.25,0,0,-1.25,0,68.75)"><g
       id="g12"
       transform="scale(0.1,0.1)"><path
         d="m 225.16,365.559 28.75,0 0,-175 -28.75,0 0,175 z m 0,68.132 28.75,0 0,-36.41 -28.75,0 0,36.41 z"
         style="fill:#595dc2;fill-opacity:1;fill-rule:nonzero;stroke:none"
         id="path14"
         inkscape:connector-curvature="0" /><path
         d="m 429.059,339 0,94.691 28.75,0 0,-243.132 -28.75,0 0,26.25 c -6.047,-10.43 -13.707,-18.2 -22.969,-23.278 -9.18,-5 -20.231,-7.5 -33.121,-7.5 -21.168,0 -38.399,8.438 -51.719,25.309 -13.238,16.879 -19.84,39.07 -19.84,66.57 0,27.5 6.602,49.68 19.84,66.559 13.32,16.871 30.551,25.312 51.719,25.312 12.89,0 23.941,-2.582 33.121,-7.652 9.262,-5 16.922,-12.738 22.969,-23.129 z M 331.09,277.91 c 0,-21.172 4.301,-37.781 12.969,-49.851 8.75,-11.989 20.711,-17.969 35.941,-17.969 15.199,0 27.191,5.98 35.941,17.969 8.75,12.07 13.118,28.679 13.118,49.851 0,21.129 -4.368,37.692 -13.118,49.68 -8.75,12.082 -20.742,18.129 -35.941,18.129 -15.23,0 -27.191,-6.047 -35.941,-18.129 -8.668,-11.988 -12.969,-28.551 -12.969,-49.68 z"
         style="fill:#595dc2;fill-opacity:1;fill-rule:nonzero;stroke:none"
         id="path16"
         inkscape:connector-curvature="0" /><path
         d="m 666.719,285.25 0,-14.059 -132.188,0 c 1.25,-19.812 7.188,-34.921 17.809,-45.312 10.711,-10.32 25.629,-15.469 44.691,-15.469 11.02,0 21.719,1.328 32.028,4.059 10.39,2.703 20.711,6.761 30.941,12.191 l 0,-27.191 c -10.309,-4.379 -20.898,-7.731 -31.719,-10 -10.859,-2.27 -21.832,-3.438 -32.972,-3.438 -27.93,0 -50.079,8.129 -66.399,24.379 -16.25,16.25 -24.379,38.199 -24.379,65.93 0,28.64 7.699,51.332 23.129,68.129 15.5,16.871 36.399,25.312 62.649,25.312 23.519,0 42.113,-7.609 55.781,-22.812 13.75,-15.117 20.629,-35.699 20.629,-61.719 z m -28.75,8.441 c -0.239,15.7 -4.649,28.278 -13.278,37.649 -8.562,9.379 -19.921,14.07 -34.07,14.07 -16.051,0 -28.902,-4.531 -38.59,-13.601 -9.609,-9.059 -15.121,-21.829 -16.562,-38.278 l 102.5,0.16 z M 608.59,446.5 l 31.101,0 -50.941,-58.75 -23.91,0 43.75,58.75 z"
         style="fill:#595dc2;fill-opacity:1;fill-rule:nonzero;stroke:none"
         id="path18"
         inkscape:connector-curvature="0" /><path
         d="m 802.5,433.691 0,-23.91 -27.5,0 c -10.309,0 -17.5,-2.109 -21.559,-6.25 -3.992,-4.179 -5.941,-11.679 -5.941,-22.5 l 0,-15.472 47.34,0 0,-22.34 -47.34,0 0,-152.66 -28.91,0 0,152.66 -27.5,0 0,22.34 27.5,0 0,12.191 c 0,19.449 4.531,33.629 13.601,42.5 9.059,8.949 23.43,13.441 43.118,13.441 l 27.191,0 z"
         style="fill:#595dc2;fill-opacity:1;fill-rule:nonzero;stroke:none"
         id="path20"
         inkscape:connector-curvature="0" /><path
         d="m 894.219,345.41 c -15.43,0 -27.617,-6.058 -36.559,-18.129 -8.988,-11.992 -13.441,-28.441 -13.441,-49.371 0,-20.941 4.41,-37.461 13.281,-49.531 8.949,-12 21.172,-17.969 36.719,-17.969 15.312,0 27.422,6.012 36.402,18.121 8.949,12.071 13.438,28.52 13.438,49.379 0,20.699 -4.489,37.11 -13.438,49.219 -8.98,12.18 -21.09,18.281 -36.402,18.281 z m 0,24.371 c 25,0 44.609,-8.121 58.902,-24.371 14.258,-16.25 21.41,-38.75 21.41,-67.5 0,-28.672 -7.152,-51.172 -21.41,-67.5 -14.293,-16.25 -33.902,-24.379 -58.902,-24.379 -25.117,0 -44.809,8.129 -59.059,24.379 -14.18,16.328 -21.25,38.828 -21.25,67.5 0,28.75 7.07,51.25 21.25,67.5 14.25,16.25 33.942,24.371 59.059,24.371 z"
         style="fill:#595dc2;fill-opacity:1;fill-rule:nonzero;stroke:none"
         id="path22"
         inkscape:connector-curvature="0" /><path
         d="m 1123.44,338.691 c -3.24,1.868 -6.8,3.2 -10.63,4.059 -3.75,0.941 -7.93,1.41 -12.5,1.41 -16.25,0 -28.75,-5.32 -37.5,-15.941 -8.67,-10.547 -12.97,-25.699 -12.97,-45.469 l 0,-92.191 -28.9,0 0,175 28.9,0 0,-27.18 c 6.02,10.621 13.91,18.473 23.6,23.59 9.68,5.203 21.44,7.812 35.31,7.812 1.95,0 4.14,-0.152 6.56,-0.472 2.39,-0.231 5.04,-0.579 7.97,-1.09 l 0.16,-29.528 z"
         style="fill:#595dc2;fill-opacity:1;fill-rule:nonzero;stroke:none"
         id="path24"
         inkscape:connector-curvature="0" /><path
         d="m 1265.47,360.41 0,-27.191 c -8.13,4.14 -16.56,7.269 -25.31,9.371 -8.75,2.082 -17.82,3.129 -27.19,3.129 -14.3,0 -25,-2.188 -32.19,-6.559 -7.11,-4.379 -10.62,-10.941 -10.62,-19.691 0,-6.68 2.54,-11.949 7.65,-15.778 5.08,-3.75 15.35,-7.351 30.78,-10.781 l 9.85,-2.191 c 20.39,-4.379 34.88,-10.59 43.44,-18.59 8.63,-7.93 12.96,-19.027 12.96,-33.289 0,-16.25 -6.48,-29.141 -19.37,-38.59 -12.81,-9.488 -30.47,-14.219 -52.97,-14.219 -9.38,0 -19.18,0.938 -29.38,2.809 -10.11,1.762 -20.78,4.461 -32.03,8.129 l 0,29.691 c 10.63,-5.551 21.1,-9.691 31.41,-12.5 10.31,-2.738 20.51,-4.07 30.62,-4.07 13.52,0 23.95,2.269 31.26,6.879 7.26,4.691 10.93,11.25 10.93,19.691 0,7.809 -2.65,13.789 -7.97,17.969 -5.23,4.141 -16.72,8.16 -34.53,12.031 l -10,2.34 c -17.81,3.75 -30.7,9.449 -38.59,17.191 -7.93,7.809 -11.88,18.481 -11.88,32.028 0,16.453 5.82,29.14 17.5,38.121 11.64,8.949 28.21,13.441 49.69,13.441 10.63,0 20.63,-0.781 30,-2.34 9.38,-1.562 18.01,-3.91 25.94,-7.031 z"
         style="fill:#595dc2;fill-opacity:1;fill-rule:nonzero;stroke:none"
         id="path26"
         inkscape:connector-curvature="0" /><g
         id="g28"
         transform="scale(1.05283,-0.947174)"><path
           d="m 232.633,-63.9814 c -22.191,9.9844 -48.311,-1.7775 -57.81,-23.5941 -2.667,-6.0954 -4.007,-12.6985 -3.97,-19.3005"
           style="fill:none;stroke:#595dc2;stroke-width:27.23800087;stroke-linecap:butt;stroke-linejoin:miter;stroke-miterlimit:4;stroke-dasharray:none;stroke-opacity:1"
           id="path30"
           inkscape:connector-curvature="0" /></g><path
         d="m 165.512,98.8906 28.7891,0 0,352.301 -28.7891,0 0,-352.301 z"
         style="fill:#595dc2;fill-opacity:1;fill-rule:nonzero;stroke:none"
         id="path32"
         inkscape:connector-curvature="0" /><path
         d="m 224.84,118.262 28.7891,0 0,26.6797 -28.7891,0 0,-26.6797 z"
         style="fill:#595dc2;fill-opacity:1;fill-rule:nonzero;stroke:none"
         id="path34"
         inkscape:connector-curvature="0" /><g
         id="g36"
         transform="scale(1.05283,-0.947174)"><path
           d="m 289.032,-83.8597 c -22.187,9.9804 -48.307,-1.7775 -57.846,-23.6313 -2.638,-6.062 -3.97,-12.661 -3.929,-19.264"
           style="fill:none;stroke:#595dc2;stroke-width:27.23800087;stroke-linecap:butt;stroke-linejoin:miter;stroke-miterlimit:4;stroke-dasharray:none;stroke-opacity:1"
           id="path38"
           inkscape:connector-curvature="0" /></g><g
         id="g40"
         transform="scale(1.05283,-0.947174)"><path
           d="m 114.502,-531.948 c 31.2,0.292 56.021,27.095 56.392,57.824"
           style="fill:none;stroke:#595dc2;stroke-width:27.23800087;stroke-linecap:butt;stroke-linejoin:miter;stroke-miterlimit:4;stroke-dasharray:none;stroke-opacity:1"
           id="path42"
           inkscape:connector-curvature="0" /></g><g
         id="g44"
         transform="scale(1.05283,-0.947174)"><path
           d="m 169.336,-565.601 c 31.199,0.293 56.058,27.099 56.399,57.824"
           style="fill:none;stroke:#595dc2;stroke-width:27.62260056;stroke-linecap:butt;stroke-linejoin:miter;stroke-miterlimit:4;stroke-dasharray:none;stroke-opacity:1"
           id="path46"
           inkscape:connector-curvature="0" /></g><path
         d="m 103.629,82.6406 28.793,0 0,344.449 -28.793,0 0,-344.449 z"
         style="fill:#595dc2;fill-opacity:1;fill-rule:nonzero;stroke:none"
         id="path48"
         inkscape:connector-curvature="0" /><g
         id="g50"
         transform="scale(1.05283,-0.947174)"><path
           d="m 173.866,-45.9632 c -22.187,9.9845 -48.307,-1.7651 -57.846,-23.6312 -2.631,-6.0583 -3.97,-12.661 -3.93,-19.2513"
           style="fill:none;stroke:#595dc2;stroke-width:27.23800087;stroke-linecap:butt;stroke-linejoin:miter;stroke-miterlimit:4;stroke-dasharray:none;stroke-opacity:1"
           id="path52"
           inkscape:connector-curvature="0" /></g><g
         id="g54"
         transform="scale(1.05283,-0.947174)"><path
           d="m 55.7651,-507.492 c 31.1624,0.247 56.0289,27.062 56.3629,57.778"
           style="fill:none;stroke:#595dc2;stroke-width:27.23800087;stroke-linecap:butt;stroke-linejoin:miter;stroke-miterlimit:4;stroke-dasharray:none;stroke-opacity:1"
           id="path56"
           inkscape:connector-curvature="0" /></g><path
         d="m 46.0508,66.3516 28.7891,0 0,344.449 -28.7891,0 0,-344.449 z"
         style="fill:#595dc2;fill-opacity:1;fill-rule:nonzero;stroke:none"
         id="path58"
         inkscape:connector-curvature="0" /><g
         id="g60"
         transform="scale(1.05283,-0.947174)"><path
           d="M 119.173,-28.6749 C 96.986,-18.6534 70.8658,-30.4153 61.3305,-52.269 58.6999,-58.3273 57.3605,-64.93 57.3976,-71.5698"
           style="fill:none;stroke:#595dc2;stroke-width:27.23800087;stroke-linecap:butt;stroke-linejoin:miter;stroke-miterlimit:4;stroke-dasharray:none;stroke-opacity:1"
           id="path62"
           inkscape:connector-curvature="0" /></g><g
         id="g64"
         transform="scale(1.05283,-0.947174)"><path
           d="m 0.853358,-488.142 c 31.203242,0.243 56.061942,27.087 56.392142,57.816"
           style="fill:none;stroke:#595dc2;stroke-width:27.23800087;stroke-linecap:butt;stroke-linejoin:miter;stroke-miterlimit:4;stroke-dasharray:none;stroke-opacity:1"
           id="path66"
           inkscape:connector-curvature="0" /></g></g></g></svg>