<?xml version="1.0" encoding="UTF-8" standalone="no"?>
<svg
   xmlns:dc="http://purl.org/dc/elements/1.1/"
   xmlns:cc="http://creativecommons.org/ns#"
   xmlns:rdf="http://www.w3.org/1999/02/22-rdf-syntax-ns#"
   xmlns:svg="http://www.w3.org/2000/svg"
   xmlns="http://www.w3.org/2000/svg"
   viewBox="0 0 68.75 68.75"
   height="68.75"
   width="68.75"
   xml:space="preserve"
   version="1.1"
   id="svg4136"><metadata
     id="metadata4142"><rdf:RDF><cc:Work
         rdf:about=""><dc:format>image/svg+xml</dc:format><dc:type
           rdf:resource="http://purl.org/dc/dcmitype/StillImage" /><dc:title></dc:title></cc:Work></rdf:RDF></metadata><defs
     id="defs4140" /><g
     transform="matrix(1.25,0,0,-1.25,0,68.75)"
     id="g4144"><g
       transform="translate(11.79661,-0.40677966)"
       id="g4331"><path
         d="m 17.828202,53.572256 c 3.284724,-0.02775 5.901955,-2.566747 5.937856,-5.476939"
         style="fill:none;stroke:#595dc2;stroke-width:2.75840855;stroke-linecap:butt;stroke-linejoin:miter;stroke-miterlimit:4;stroke-dasharray:none;stroke-opacity:1"
         id="path4180" /><path
         id="path4148"
         style="fill:#000000;fill-opacity:1;fill-rule:nonzero;stroke:none"
         d="m 22.516,36.5559 2.875,0 0,-17.5 -2.875,0 0,17.5 z m 0,6.8132 2.875,0 0,-3.641 -2.875,0 0,3.641 z" /><g
         transform="scale(0.105283,-0.0947174)"
         id="g4162"><path
           id="path4164"
           style="fill:none;stroke:#595dc2;stroke-width:27.23800087;stroke-linecap:butt;stroke-linejoin:miter;stroke-miterlimit:4;stroke-dasharray:none;stroke-opacity:1"
           d="m 232.633,-63.9814 c -22.191,9.9844 -48.311,-1.7775 -57.81,-23.5941 -2.667,-6.0954 -4.007,-12.6985 -3.97,-19.3005" /></g><path
         id="path4166"
         style="fill:#595dc2;fill-opacity:1;fill-rule:nonzero;stroke:none"
         d="m 16.5512,9.88906 2.87891,0 0,35.2301 -2.87891,0 0,-35.2301 z" /><path
         id="path4168"
         style="fill:#595dc2;fill-opacity:1;fill-rule:nonzero;stroke:none"
         d="m 22.484,11.8262 2.87891,0 0,2.66797 -2.87891,0 0,-2.66797 z" /><g
         transform="scale(0.105283,-0.0947174)"
         id="g4170"><path
           id="path4172"
           style="fill:none;stroke:#595dc2;stroke-width:27.23800087;stroke-linecap:butt;stroke-linejoin:miter;stroke-miterlimit:4;stroke-dasharray:none;stroke-opacity:1"
           d="m 289.032,-83.8597 c -22.187,9.9804 -48.307,-1.7775 -57.846,-23.6313 -2.638,-6.062 -3.97,-12.661 -3.929,-19.264" /></g><g
         transform="scale(0.105283,-0.0947174)"
         id="g4174"><path
           id="path4176"
           style="fill:none;stroke:#595dc2;stroke-width:27.23800087;stroke-linecap:butt;stroke-linejoin:miter;stroke-miterlimit:4;stroke-dasharray:none;stroke-opacity:1"
           d="m 114.502,-531.948 c 31.2,0.292 56.021,27.095 56.392,57.824" /></g><path
         id="path4182"
         style="fill:#595dc2;fill-opacity:1;fill-rule:nonzero;stroke:none"
         d="m 10.3629,8.26406 2.8793,0 0,34.4449 -2.8793,0 0,-34.4449 z" /><g
         transform="scale(0.105283,-0.0947174)"
         id="g4184"><path
           id="path4186"
           style="fill:none;stroke:#595dc2;stroke-width:27.23800087;stroke-linecap:butt;stroke-linejoin:miter;stroke-miterlimit:4;stroke-dasharray:none;stroke-opacity:1"
           d="m 173.866,-45.9632 c -22.187,9.9845 -48.307,-1.7651 -57.846,-23.6312 -2.631,-6.0583 -3.97,-12.661 -3.93,-19.2513" /></g><g
         transform="scale(0.105283,-0.0947174)"
         id="g4188"><path
           id="path4190"
           style="fill:none;stroke:#595dc2;stroke-width:27.23800087;stroke-linecap:butt;stroke-linejoin:miter;stroke-miterlimit:4;stroke-dasharray:none;stroke-opacity:1"
           d="m 55.7651,-507.492 c 31.1624,0.247 56.0289,27.062 56.3629,57.778" /></g><path
         id="path4192"
         style="fill:#595dc2;fill-opacity:1;fill-rule:nonzero;stroke:none"
         d="m 4.60508,6.63516 2.87891,0 0,34.4449 -2.87891,0 0,-34.4449 z" /><g
         transform="scale(0.105283,-0.0947174)"
         id="g4194"><path
           id="path4196"
           style="fill:none;stroke:#595dc2;stroke-width:27.23800087;stroke-linecap:butt;stroke-linejoin:miter;stroke-miterlimit:4;stroke-dasharray:none;stroke-opacity:1"
           d="M 119.173,-28.6749 C 96.986,-18.6534 70.8658,-30.4153 61.3305,-52.269 58.6999,-58.3273 57.3605,-64.93 57.3976,-71.5698" /></g><g
         transform="scale(0.105283,-0.0947174)"
         id="g4198"><path
           id="path4200"
           style="fill:none;stroke:#595dc2;stroke-width:27.23800087;stroke-linecap:butt;stroke-linejoin:miter;stroke-miterlimit:4;stroke-dasharray:none;stroke-opacity:1"
           d="m 0.853358,-488.142 c 31.203242,0.243 56.061942,27.087 56.392142,57.816" /></g></g></g></svg>